<svg xmlns="http://www.w3.org/2000/svg" viewBox="0 0 1400 900" width="1400" height="900">
<rect x="0" y="0" width="1400" height="900" rx="0" fill="#1a1a2e" stroke="none"/><rect x="0" y="0" width="1400" height="52" rx="0" fill="#252542" stroke="none"/><rect x="0" y="50" width="1400" height="3" rx="0" fill="#7c6fff" stroke="none"/><text x="32" y="34" text-anchor="start" font-size="18" font-weight="700" fill="#e0e4ff"  font-family="Segoe UI,Arial,sans-serif">Scale Model Car Store — Phase 2 Advanced Analytics</text><text x="1368" y="34" text-anchor="end" font-size="12" font-weight="normal" fill="#9aa0cc"  font-family="Segoe UI,Arial,sans-serif">stores.db · 2003–2005 · AX Consult Group</text><rect x="32" y="64" width="326" height="62" rx="8" fill="#20203a" stroke="#383860" stroke-width="1"/><text x="195" y="94" text-anchor="middle" font-size="22" font-weight="700" fill="#50c8a0"  font-family="Segoe UI,Arial,sans-serif">$3.83M</text><text x="195" y="114" text-anchor="middle" font-size="10" font-weight="normal" fill="#9aa0cc"  font-family="Segoe UI,Arial,sans-serif">Total Profit (All Reps)</text><rect x="370" y="64" width="326" height="62" rx="8" fill="#20203a" stroke="#383860" stroke-width="1"/><text x="533" y="94" text-anchor="middle" font-size="16" font-weight="700" fill="#ffd700"  font-family="Segoe UI,Arial,sans-serif">Gerard Hernandez</text><text x="533" y="114" text-anchor="middle" font-size="10" font-weight="normal" fill="#9aa0cc"  font-family="Segoe UI,Arial,sans-serif">Top Sales Rep</text><rect x="708" y="64" width="326" height="62" rx="8" fill="#20203a" stroke="#383860" stroke-width="1"/><text x="871" y="94" text-anchor="middle" font-size="22" font-weight="700" fill="#7c6fff"  font-family="Segoe UI,Arial,sans-serif">Paris</text><text x="871" y="114" text-anchor="middle" font-size="10" font-weight="normal" fill="#9aa0cc"  font-family="Segoe UI,Arial,sans-serif">Top Office</text><rect x="1046" y="64" width="326" height="62" rx="8" fill="#20203a" stroke="#383860" stroke-width="1"/><text x="1209" y="94" text-anchor="middle" font-size="22" font-weight="700" fill="#ff7c7c"  font-family="Segoe UI,Arial,sans-serif">12</text><text x="1209" y="114" text-anchor="middle" font-size="10" font-weight="normal" fill="#9aa0cc"  font-family="Segoe UI,Arial,sans-serif">Churn-Risk Customers</text><rect x="32" y="140" width="672" height="245" rx="8" fill="#20203a" stroke="#383860" stroke-width="1"/><rect x="716" y="140" width="652" height="245" rx="8" fill="#20203a" stroke="#383860" stroke-width="1"/><text x="48" y="162" text-anchor="start" font-size="10" font-weight="600" fill="#7c6fff"  font-family="Segoe UI,Arial,sans-serif">SALES REP PERFORMANCE — TOTAL PROFIT</text><text x="732" y="162" text-anchor="start" font-size="10" font-weight="600" fill="#7c6fff"  font-family="Segoe UI,Arial,sans-serif">OFFICE PERFORMANCE — TOTAL PROFIT</text><rect x="150" y="174" width="540" height="11" rx="2" fill="#50c8a0" stroke="none"/><text x="146" y="184" text-anchor="end" font-size="9" font-weight="normal" fill="#e0e4ff"  font-family="Segoe UI,Arial,sans-serif">Gerard Hernandez</text><text x="694" y="184" text-anchor="start" font-size="8" font-weight="normal" fill="#50c8a0"  font-family="Segoe UI,Arial,sans-serif">$505k</text><rect x="150" y="187" width="465" height="11" rx="2" fill="#4a90e2" stroke="none"/><text x="146" y="197" text-anchor="end" font-size="9" font-weight="normal" fill="#9aa0cc"  font-family="Segoe UI,Arial,sans-serif">Leslie Jennings</text><text x="619" y="197" text-anchor="start" font-size="8" font-weight="normal" fill="#4a90e2"  font-family="Segoe UI,Arial,sans-serif">$435k</text><rect x="150" y="200" width="364" height="11" rx="2" fill="#4a90e2" stroke="none"/><text x="146" y="210" text-anchor="end" font-size="9" font-weight="normal" fill="#9aa0cc"  font-family="Segoe UI,Arial,sans-serif">Pamela Castillo</text><text x="518" y="210" text-anchor="start" font-size="8" font-weight="normal" fill="#4a90e2"  font-family="Segoe UI,Arial,sans-serif">$341k</text><rect x="150" y="213" width="310" height="11" rx="2" fill="#4a90e2" stroke="none"/><text x="146" y="223" text-anchor="end" font-size="9" font-weight="normal" fill="#9aa0cc"  font-family="Segoe UI,Arial,sans-serif">Larry Bott</text><text x="464" y="223" text-anchor="start" font-size="8" font-weight="normal" fill="#4a90e2"  font-family="Segoe UI,Arial,sans-serif">$290k</text><rect x="150" y="226" width="296" height="11" rx="2" fill="#4a90e2" stroke="none"/><text x="146" y="236" text-anchor="end" font-size="9" font-weight="normal" fill="#9aa0cc"  font-family="Segoe UI,Arial,sans-serif">Barry Jones</text><text x="450" y="236" text-anchor="start" font-size="8" font-weight="normal" fill="#4a90e2"  font-family="Segoe UI,Arial,sans-serif">$277k</text><rect x="150" y="239" width="288" height="11" rx="2" fill="#4a90e2" stroke="none"/><text x="146" y="249" text-anchor="end" font-size="9" font-weight="normal" fill="#9aa0cc"  font-family="Segoe UI,Arial,sans-serif">George Vanauf</text><text x="442" y="249" text-anchor="start" font-size="8" font-weight="normal" fill="#4a90e2"  font-family="Segoe UI,Arial,sans-serif">$270k</text><rect x="150" y="252" width="251" height="11" rx="2" fill="#4a90e2" stroke="none"/><text x="146" y="262" text-anchor="end" font-size="9" font-weight="normal" fill="#9aa0cc"  font-family="Segoe UI,Arial,sans-serif">Loui Bondur</text><text x="405" y="262" text-anchor="start" font-size="8" font-weight="normal" fill="#4a90e2"  font-family="Segoe UI,Arial,sans-serif">$235k</text><rect x="150" y="265" width="246" height="11" rx="2" fill="#4a90e2" stroke="none"/><text x="146" y="275" text-anchor="end" font-size="9" font-weight="normal" fill="#9aa0cc"  font-family="Segoe UI,Arial,sans-serif">Peter Marsh</text><text x="400" y="275" text-anchor="start" font-size="8" font-weight="normal" fill="#4a90e2"  font-family="Segoe UI,Arial,sans-serif">$231k</text><rect x="150" y="278" width="237" height="11" rx="2" fill="#4a90e2" stroke="none"/><text x="146" y="288" text-anchor="end" font-size="9" font-weight="normal" fill="#9aa0cc"  font-family="Segoe UI,Arial,sans-serif">Andy Fixter</text><text x="391" y="288" text-anchor="start" font-size="8" font-weight="normal" fill="#4a90e2"  font-family="Segoe UI,Arial,sans-serif">$222k</text><rect x="150" y="291" width="211" height="11" rx="2" fill="#4a90e2" stroke="none"/><text x="146" y="301" text-anchor="end" font-size="9" font-weight="normal" fill="#9aa0cc"  font-family="Segoe UI,Arial,sans-serif">Steve Patterson</text><text x="365" y="301" text-anchor="start" font-size="8" font-weight="normal" fill="#4a90e2"  font-family="Segoe UI,Arial,sans-serif">$198k</text><rect x="150" y="304" width="208" height="11" rx="2" fill="#4a90e2" stroke="none"/><text x="146" y="314" text-anchor="end" font-size="9" font-weight="normal" fill="#9aa0cc"  font-family="Segoe UI,Arial,sans-serif">Foon Yue Tseng</text><text x="362" y="314" text-anchor="start" font-size="8" font-weight="normal" fill="#4a90e2"  font-family="Segoe UI,Arial,sans-serif">$195k</text><rect x="150" y="317" width="193" height="11" rx="2" fill="#4a90e2" stroke="none"/><text x="146" y="327" text-anchor="end" font-size="9" font-weight="normal" fill="#9aa0cc"  font-family="Segoe UI,Arial,sans-serif">Mami Nishi</text><text x="347" y="327" text-anchor="start" font-size="8" font-weight="normal" fill="#4a90e2"  font-family="Segoe UI,Arial,sans-serif">$181k</text><rect x="150" y="330" width="167" height="11" rx="2" fill="#4a90e2" stroke="none"/><text x="146" y="340" text-anchor="end" font-size="9" font-weight="normal" fill="#9aa0cc"  font-family="Segoe UI,Arial,sans-serif">Martin Gerard</text><text x="321" y="340" text-anchor="start" font-size="8" font-weight="normal" fill="#4a90e2"  font-family="Segoe UI,Arial,sans-serif">$157k</text><rect x="150" y="343" width="162" height="11" rx="2" fill="#4a90e2" stroke="none"/><text x="146" y="353" text-anchor="end" font-size="9" font-weight="normal" fill="#9aa0cc"  font-family="Segoe UI,Arial,sans-serif">Julie Firrelli</text><text x="316" y="353" text-anchor="start" font-size="8" font-weight="normal" fill="#4a90e2"  font-family="Segoe UI,Arial,sans-serif">$152k</text><rect x="150" y="356" width="147" height="11" rx="2" fill="#4a90e2" stroke="none"/><text x="146" y="366" text-anchor="end" font-size="9" font-weight="normal" fill="#9aa0cc"  font-family="Segoe UI,Arial,sans-serif">Leslie Thompson</text><text x="301" y="366" text-anchor="start" font-size="8" font-weight="normal" fill="#4a90e2"  font-family="Segoe UI,Arial,sans-serif">$138k</text><rect x="850" y="179" width="490" height="20" rx="3" fill="#50c8a0" stroke="none"/><text x="846" y="195" text-anchor="end" font-size="9.5" font-weight="normal" fill="#e0e4ff"  font-family="Segoe UI,Arial,sans-serif">Paris</text><text x="1345" y="195" text-anchor="start" font-size="9" font-weight="normal" fill="#50c8a0"  font-family="Segoe UI,Arial,sans-serif">$1237k</text><rect x="850" y="206" width="227" height="20" rx="3" fill="#7c6fff" stroke="none"/><text x="846" y="222" text-anchor="end" font-size="9.5" font-weight="normal" fill="#9aa0cc"  font-family="Segoe UI,Arial,sans-serif">San Francisco</text><text x="1082" y="222" text-anchor="start" font-size="9" font-weight="normal" fill="#7c6fff"  font-family="Segoe UI,Arial,sans-serif">$573k</text><rect x="850" y="233" width="224" height="20" rx="3" fill="#7c6fff" stroke="none"/><text x="846" y="249" text-anchor="end" font-size="9.5" font-weight="normal" fill="#9aa0cc"  font-family="Segoe UI,Arial,sans-serif">London</text><text x="1079" y="249" text-anchor="start" font-size="9" font-weight="normal" fill="#7c6fff"  font-family="Segoe UI,Arial,sans-serif">$567k</text><rect x="850" y="260" width="183" height="20" rx="3" fill="#7c6fff" stroke="none"/><text x="846" y="276" text-anchor="end" font-size="9.5" font-weight="normal" fill="#9aa0cc"  font-family="Segoe UI,Arial,sans-serif">NYC</text><text x="1038" y="276" text-anchor="start" font-size="9" font-weight="normal" fill="#7c6fff"  font-family="Segoe UI,Arial,sans-serif">$464k</text><rect x="850" y="287" width="179" height="20" rx="3" fill="#7c6fff" stroke="none"/><text x="846" y="303" text-anchor="end" font-size="9.5" font-weight="normal" fill="#9aa0cc"  font-family="Segoe UI,Arial,sans-serif">Sydney</text><text x="1034" y="303" text-anchor="start" font-size="9" font-weight="normal" fill="#7c6fff"  font-family="Segoe UI,Arial,sans-serif">$453k</text><rect x="850" y="314" width="138" height="20" rx="3" fill="#7c6fff" stroke="none"/><text x="846" y="330" text-anchor="end" font-size="9.5" font-weight="normal" fill="#9aa0cc"  font-family="Segoe UI,Arial,sans-serif">Boston</text><text x="993" y="330" text-anchor="start" font-size="9" font-weight="normal" fill="#7c6fff"  font-family="Segoe UI,Arial,sans-serif">$350k</text><rect x="850" y="341" width="71" height="20" rx="3" fill="#7c6fff" stroke="none"/><text x="846" y="357" text-anchor="end" font-size="9.5" font-weight="normal" fill="#9aa0cc"  font-family="Segoe UI,Arial,sans-serif">Tokyo</text><text x="926" y="357" text-anchor="start" font-size="9" font-weight="normal" fill="#7c6fff"  font-family="Segoe UI,Arial,sans-serif">$181k</text><rect x="32" y="398" width="1336" height="185" rx="8" fill="#20203a" stroke="#383860" stroke-width="1"/><text x="48" y="418" text-anchor="start" font-size="10" font-weight="600" fill="#7c6fff"  font-family="Segoe UI,Arial,sans-serif">MONTHLY REVENUE — 2003 TO 2005</text><line x1="80" y1="535" x2="1350" y2="535" stroke="#383860" stroke-width="1" stroke-dasharray="4,3"/><text x="75" y="539" text-anchor="end" font-size="8" font-weight="normal" fill="#9aa0cc"  font-family="Segoe UI,Arial,sans-serif">$244k</text><line x1="80" y1="500" x2="1350" y2="500" stroke="#383860" stroke-width="1" stroke-dasharray="4,3"/><text x="75" y="504" text-anchor="end" font-size="8" font-weight="normal" fill="#9aa0cc"  font-family="Segoe UI,Arial,sans-serif">$489k</text><line x1="80" y1="465" x2="1350" y2="465" stroke="#383860" stroke-width="1" stroke-dasharray="4,3"/><text x="75" y="469" text-anchor="end" font-size="8" font-weight="normal" fill="#9aa0cc"  font-family="Segoe UI,Arial,sans-serif">$734k</text><line x1="80" y1="430" x2="1350" y2="430" stroke="#383860" stroke-width="1" stroke-dasharray="4,3"/><text x="75" y="434" text-anchor="end" font-size="8" font-weight="normal" fill="#9aa0cc"  font-family="Segoe UI,Arial,sans-serif">$979k</text><text x="80" y="584" text-anchor="middle" font-size="7" font-weight="normal" fill="#9aa0cc"  font-family="Segoe UI,Arial,sans-serif">J</text><text x="216" y="584" text-anchor="middle" font-size="7" font-weight="normal" fill="#9aa0cc"  font-family="Segoe UI,Arial,sans-serif">A</text><text x="352" y="584" text-anchor="middle" font-size="7" font-weight="normal" fill="#9aa0cc"  font-family="Segoe UI,Arial,sans-serif">J</text><text x="488" y="584" text-anchor="middle" font-size="7" font-weight="normal" fill="#9aa0cc"  font-family="Segoe UI,Arial,sans-serif">O</text><text x="624" y="584" text-anchor="middle" font-size="7" font-weight="normal" fill="#9aa0cc"  font-family="Segoe UI,Arial,sans-serif">J</text><text x="760" y="584" text-anchor="middle" font-size="7" font-weight="normal" fill="#9aa0cc"  font-family="Segoe UI,Arial,sans-serif">A</text><text x="896" y="584" text-anchor="middle" font-size="7" font-weight="normal" fill="#9aa0cc"  font-family="Segoe UI,Arial,sans-serif">J</text><text x="1032" y="584" text-anchor="middle" font-size="7" font-weight="normal" fill="#9aa0cc"  font-family="Segoe UI,Arial,sans-serif">O</text><text x="1168" y="584" text-anchor="middle" font-size="7" font-weight="normal" fill="#9aa0cc"  font-family="Segoe UI,Arial,sans-serif">J</text><text x="1304" y="584" text-anchor="middle" font-size="7" font-weight="normal" fill="#9aa0cc"  font-family="Segoe UI,Arial,sans-serif">A</text><rect x="207.0" y="590" width="8" height="8" rx="2" fill="#4a90e2" stroke="none"/><text x="219.0" y="598" text-anchor="start" font-size="9" font-weight="normal" fill="#9aa0cc"  font-family="Segoe UI,Arial,sans-serif">2003</text><rect x="651.5" y="590" width="8" height="8" rx="2" fill="#50c8a0" stroke="none"/><text x="663.5" y="598" text-anchor="start" font-size="9" font-weight="normal" fill="#9aa0cc"  font-family="Segoe UI,Arial,sans-serif">2004</text><rect x="1159.5" y="590" width="8" height="8" rx="2" fill="#7c6fff" stroke="none"/><text x="1171.5" y="598" text-anchor="start" font-size="9" font-weight="normal" fill="#9aa0cc"  font-family="Segoe UI,Arial,sans-serif">2005</text><polyline points="80,554 125,552 170,548 216,544 261,545 306,549 352,542 397,545 442,537 488,503 533,433 578,531" fill="none" stroke="#4a90e2" stroke-width="2.5" stroke-linejoin="round"/><circle cx="80" cy="554" r="3" fill="#4a90e2"/><circle cx="125" cy="552" r="3" fill="#4a90e2"/><circle cx="170" cy="548" r="3" fill="#4a90e2"/><circle cx="216" cy="544" r="3" fill="#4a90e2"/><circle cx="261" cy="545" r="3" fill="#4a90e2"/><circle cx="306" cy="549" r="3" fill="#4a90e2"/><circle cx="352" cy="542" r="3" fill="#4a90e2"/><circle cx="397" cy="545" r="3" fill="#4a90e2"/><circle cx="442" cy="537" r="3" fill="#4a90e2"/><circle cx="488" cy="503" r="3" fill="#4a90e2"/><circle cx="533" cy="433" r="3" fill="#4a90e2"/><circle cx="578" cy="531" r="3" fill="#4a90e2"/><polyline points="624,529 669,529 715,539 760,544 805,541 851,540 896,524 941,511 987,530 1032,499 1077,430 1123,509" fill="none" stroke="#50c8a0" stroke-width="2.5" stroke-linejoin="round"/><circle cx="624" cy="529" r="3" fill="#50c8a0"/><circle cx="669" cy="529" r="3" fill="#50c8a0"/><circle cx="715" cy="539" r="3" fill="#50c8a0"/><circle cx="760" cy="544" r="3" fill="#50c8a0"/><circle cx="805" cy="541" r="3" fill="#50c8a0"/><circle cx="851" cy="540" r="3" fill="#50c8a0"/><circle cx="896" cy="524" r="3" fill="#50c8a0"/><circle cx="941" cy="511" r="3" fill="#50c8a0"/><circle cx="987" cy="530" r="3" fill="#50c8a0"/><circle cx="1032" cy="499" r="3" fill="#50c8a0"/><circle cx="1077" cy="430" r="3" fill="#50c8a0"/><circle cx="1123" cy="509" r="3" fill="#50c8a0"/><polyline points="1168,527 1213,525 1259,519 1304,521 1350,507" fill="none" stroke="#7c6fff" stroke-width="2.5" stroke-linejoin="round"/><circle cx="1168" cy="527" r="3" fill="#7c6fff"/><circle cx="1213" cy="525" r="3" fill="#7c6fff"/><circle cx="1259" cy="519" r="3" fill="#7c6fff"/><circle cx="1304" cy="521" r="3" fill="#7c6fff"/><circle cx="1350" cy="507" r="3" fill="#7c6fff"/><circle cx="1077" cy="430" r="6" fill="none" stroke="#ffd700" stroke-width="2"/><text x="1087" y="424" text-anchor="start" font-size="8.5" font-weight="normal" fill="#ffd700"  font-family="Segoe UI,Arial,sans-serif">Nov Peak  $979k</text><rect x="32" y="596" width="430" height="280" rx="8" fill="#20203a" stroke="#383860" stroke-width="1"/><rect x="474" y="596" width="894" height="280" rx="8" fill="#20203a" stroke="#383860" stroke-width="1"/><text x="48" y="616" text-anchor="start" font-size="10" font-weight="600" fill="#7c6fff"  font-family="Segoe UI,Arial,sans-serif">CUSTOMER SEGMENTS</text><text x="490" y="616" text-anchor="start" font-size="10" font-weight="600" fill="#7c6fff"  font-family="Segoe UI,Arial,sans-serif">TOP DORMANT CUSTOMERS — CHURN RISK (>180 DAYS INACTIVE)</text><circle cx="180" cy="730" r="65" fill="none" stroke="#383860" stroke-width="26"/><circle cx="180" cy="730" r="65" fill="none" stroke="#ffd700" stroke-width="26" stroke-dasharray="8.3 400.1" transform="rotate(-90.0 180 730)"/><circle cx="180" cy="730" r="65" fill="none" stroke="#50c8a0" stroke-width="26" stroke-dasharray="62.5 345.9" transform="rotate(-82.7 180 730)"/><circle cx="180" cy="730" r="65" fill="none" stroke="#4a90e2" stroke-width="26" stroke-dasharray="266.7 141.7" transform="rotate(-27.6 180 730)"/><circle cx="180" cy="730" r="65" fill="none" stroke="#ff7c7c" stroke-width="26" stroke-dasharray="70.8 337.6" transform="rotate(207.6 180 730)"/><circle cx="180" cy="730" r="35" fill="#20203a"/><text x="180" y="724" text-anchor="middle" font-size="18" font-weight="700" fill="#e0e4ff"  font-family="Segoe UI,Arial,sans-serif">98</text><text x="180" y="742" text-anchor="middle" font-size="9" font-weight="normal" fill="#9aa0cc"  font-family="Segoe UI,Arial,sans-serif">customers</text><rect x="275" y="660" width="12" height="12" rx="2" fill="#ffd700" stroke="none"/><text x="293" y="671" text-anchor="start" font-size="11" font-weight="600" fill="#ffd700"  font-family="Segoe UI,Arial,sans-serif">Platinum</text><text x="293" y="684" text-anchor="start" font-size="9.5" font-weight="normal" fill="#9aa0cc"  font-family="Segoe UI,Arial,sans-serif">2 customers · $544k profit</text><rect x="275" y="698" width="12" height="12" rx="2" fill="#50c8a0" stroke="none"/><text x="293" y="709" text-anchor="start" font-size="11" font-weight="600" fill="#50c8a0"  font-family="Segoe UI,Arial,sans-serif">Gold</text><text x="293" y="722" text-anchor="start" font-size="9.5" font-weight="normal" fill="#9aa0cc"  font-family="Segoe UI,Arial,sans-serif">15 customers · $867k profit</text><rect x="275" y="736" width="12" height="12" rx="2" fill="#4a90e2" stroke="none"/><text x="293" y="747" text-anchor="start" font-size="11" font-weight="600" fill="#4a90e2"  font-family="Segoe UI,Arial,sans-serif">Silver</text><text x="293" y="760" text-anchor="start" font-size="9.5" font-weight="normal" fill="#9aa0cc"  font-family="Segoe UI,Arial,sans-serif">64 customers · $2088k profit</text><rect x="275" y="774" width="12" height="12" rx="2" fill="#ff7c7c" stroke="none"/><text x="293" y="785" text-anchor="start" font-size="11" font-weight="600" fill="#ff7c7c"  font-family="Segoe UI,Arial,sans-serif">Bronze</text><text x="293" y="798" text-anchor="start" font-size="9.5" font-weight="normal" fill="#9aa0cc"  font-family="Segoe UI,Arial,sans-serif">17 customers · $233k profit</text><rect x="490" y="628" width="770" height="18" rx="3" fill="#252542" stroke="none"/><text x="496" y="641" text-anchor="start" font-size="8.5" font-weight="600" fill="#7c6fff"  font-family="Segoe UI,Arial,sans-serif">Customer</text><text x="761" y="641" text-anchor="start" font-size="8.5" font-weight="600" fill="#7c6fff"  font-family="Segoe UI,Arial,sans-serif">Country</text><text x="856" y="641" text-anchor="start" font-size="8.5" font-weight="600" fill="#7c6fff"  font-family="Segoe UI,Arial,sans-serif">Segment</text><text x="936" y="641" text-anchor="start" font-size="8.5" font-weight="600" fill="#7c6fff"  font-family="Segoe UI,Arial,sans-serif">Days</text><text x="1016" y="641" text-anchor="start" font-size="8.5" font-weight="600" fill="#7c6fff"  font-family="Segoe UI,Arial,sans-serif">Lifetime Profit</text><rect x="490" y="646" width="770" height="20" rx="0" fill="#20203a" stroke="none"/><text x="496" y="660" text-anchor="start" font-size="9" font-weight="normal" fill="#e0e4ff"  font-family="Segoe UI,Arial,sans-serif">King Kong Collectables, Co.</text><text x="761" y="660" text-anchor="start" font-size="9" font-weight="normal" fill="#9aa0cc"  font-family="Segoe UI,Arial,sans-serif">Hong Kong</text><text x="856" y="660" text-anchor="start" font-size="9" font-weight="normal" fill="#ff7c7c"  font-family="Segoe UI,Arial,sans-serif">Bronze</text><text x="936" y="660" text-anchor="start" font-size="9" font-weight="normal" fill="#ff7c7c"  font-family="Segoe UI,Arial,sans-serif">548</text><text x="1016" y="660" text-anchor="start" font-size="9" font-weight="normal" fill="#50c8a0"  font-family="Segoe UI,Arial,sans-serif">$16.9k</text><rect x="490" y="666" width="770" height="20" rx="0" fill="#252542" stroke="none"/><text x="496" y="680" text-anchor="start" font-size="9" font-weight="normal" fill="#e0e4ff"  font-family="Segoe UI,Arial,sans-serif">Men 'R' US Retailers, Ltd.</text><text x="761" y="680" text-anchor="start" font-size="9" font-weight="normal" fill="#9aa0cc"  font-family="Segoe UI,Arial,sans-serif">USA</text><text x="856" y="680" text-anchor="start" font-size="9" font-weight="normal" fill="#ff7c7c"  font-family="Segoe UI,Arial,sans-serif">Bronze</text><text x="936" y="680" text-anchor="start" font-size="9" font-weight="normal" fill="#ff7c7c"  font-family="Segoe UI,Arial,sans-serif">509</text><text x="1016" y="680" text-anchor="start" font-size="9" font-weight="normal" fill="#50c8a0"  font-family="Segoe UI,Arial,sans-serif">$14.9k</text><rect x="490" y="686" width="770" height="20" rx="0" fill="#20203a" stroke="none"/><text x="496" y="700" text-anchor="start" font-size="9" font-weight="normal" fill="#e0e4ff"  font-family="Segoe UI,Arial,sans-serif">Double Decker Gift Stores, Ltd</text><text x="761" y="700" text-anchor="start" font-size="9" font-weight="normal" fill="#9aa0cc"  font-family="Segoe UI,Arial,sans-serif">UK</text><text x="856" y="700" text-anchor="start" font-size="9" font-weight="normal" fill="#ff7c7c"  font-family="Segoe UI,Arial,sans-serif">Bronze</text><text x="936" y="700" text-anchor="start" font-size="9" font-weight="normal" fill="#ff7c7c"  font-family="Segoe UI,Arial,sans-serif">496</text><text x="1016" y="700" text-anchor="start" font-size="9" font-weight="normal" fill="#50c8a0"  font-family="Segoe UI,Arial,sans-serif">$10.9k</text><rect x="490" y="706" width="770" height="20" rx="0" fill="#252542" stroke="none"/><text x="496" y="720" text-anchor="start" font-size="9" font-weight="normal" fill="#e0e4ff"  font-family="Segoe UI,Arial,sans-serif">West Coast Collectables Co.</text><text x="761" y="720" text-anchor="start" font-size="9" font-weight="normal" fill="#9aa0cc"  font-family="Segoe UI,Arial,sans-serif">USA</text><text x="856" y="720" text-anchor="start" font-size="9" font-weight="normal" fill="#ff7c7c"  font-family="Segoe UI,Arial,sans-serif">Bronze</text><text x="936" y="720" text-anchor="start" font-size="9" font-weight="normal" fill="#ff7c7c"  font-family="Segoe UI,Arial,sans-serif">489</text><text x="1016" y="720" text-anchor="start" font-size="9" font-weight="normal" fill="#50c8a0"  font-family="Segoe UI,Arial,sans-serif">$17.2k</text><rect x="490" y="726" width="770" height="20" rx="0" fill="#20203a" stroke="none"/><text x="496" y="740" text-anchor="start" font-size="9" font-weight="normal" fill="#e0e4ff"  font-family="Segoe UI,Arial,sans-serif">Frau da Collezione</text><text x="761" y="740" text-anchor="start" font-size="9" font-weight="normal" fill="#9aa0cc"  font-family="Segoe UI,Arial,sans-serif">Italy</text><text x="856" y="740" text-anchor="start" font-size="9" font-weight="normal" fill="#ff7c7c"  font-family="Segoe UI,Arial,sans-serif">Bronze</text><text x="936" y="740" text-anchor="start" font-size="9" font-weight="normal" fill="#ff7c7c"  font-family="Segoe UI,Arial,sans-serif">478</text><text x="1016" y="740" text-anchor="start" font-size="9" font-weight="normal" fill="#50c8a0"  font-family="Segoe UI,Arial,sans-serif">$9.5k</text><rect x="490" y="746" width="770" height="20" rx="0" fill="#252542" stroke="none"/><text x="496" y="760" text-anchor="start" font-size="9" font-weight="normal" fill="#e0e4ff"  font-family="Segoe UI,Arial,sans-serif">Signal Collectibles Ltd.</text><text x="761" y="760" text-anchor="start" font-size="9" font-weight="normal" fill="#9aa0cc"  font-family="Segoe UI,Arial,sans-serif">USA</text><text x="856" y="760" text-anchor="start" font-size="9" font-weight="normal" fill="#ff7c7c"  font-family="Segoe UI,Arial,sans-serif">Bronze</text><text x="936" y="760" text-anchor="start" font-size="9" font-weight="normal" fill="#ff7c7c"  font-family="Segoe UI,Arial,sans-serif">477</text><text x="1016" y="760" text-anchor="start" font-size="9" font-weight="normal" fill="#50c8a0"  font-family="Segoe UI,Arial,sans-serif">$17.2k</text><rect x="490" y="766" width="770" height="20" rx="0" fill="#20203a" stroke="none"/><text x="496" y="780" text-anchor="start" font-size="9" font-weight="normal" fill="#e0e4ff"  font-family="Segoe UI,Arial,sans-serif">Daedalus Designs Imports</text><text x="761" y="780" text-anchor="start" font-size="9" font-weight="normal" fill="#9aa0cc"  font-family="Segoe UI,Arial,sans-serif">France</text><text x="856" y="780" text-anchor="start" font-size="9" font-weight="normal" fill="#4a90e2"  font-family="Segoe UI,Arial,sans-serif">Silver</text><text x="936" y="780" text-anchor="start" font-size="9" font-weight="normal" fill="#ff7c7c"  font-family="Segoe UI,Arial,sans-serif">466</text><text x="1016" y="780" text-anchor="start" font-size="9" font-weight="normal" fill="#50c8a0"  font-family="Segoe UI,Arial,sans-serif">$27.1k</text><rect x="490" y="786" width="770" height="20" rx="0" fill="#252542" stroke="none"/><text x="496" y="800" text-anchor="start" font-size="9" font-weight="normal" fill="#e0e4ff"  font-family="Segoe UI,Arial,sans-serif">Collectable Mini Designs Co.</text><text x="761" y="800" text-anchor="start" font-size="9" font-weight="normal" fill="#9aa0cc"  font-family="Segoe UI,Arial,sans-serif">USA</text><text x="856" y="800" text-anchor="start" font-size="9" font-weight="normal" fill="#4a90e2"  font-family="Segoe UI,Arial,sans-serif">Silver</text><text x="936" y="800" text-anchor="start" font-size="9" font-weight="normal" fill="#ff7c7c"  font-family="Segoe UI,Arial,sans-serif">461</text><text x="1016" y="800" text-anchor="start" font-size="9" font-weight="normal" fill="#50c8a0"  font-family="Segoe UI,Arial,sans-serif">$31.6k</text><rect x="490" y="806" width="770" height="20" rx="0" fill="#20203a" stroke="none"/><text x="496" y="820" text-anchor="start" font-size="9" font-weight="normal" fill="#e0e4ff"  font-family="Segoe UI,Arial,sans-serif">Saveley & Henriot, Co.</text><text x="761" y="820" text-anchor="start" font-size="9" font-weight="normal" fill="#9aa0cc"  font-family="Segoe UI,Arial,sans-serif">France</text><text x="856" y="820" text-anchor="start" font-size="9" font-weight="normal" fill="#50c8a0"  font-family="Segoe UI,Arial,sans-serif">Gold</text><text x="936" y="820" text-anchor="start" font-size="9" font-weight="normal" fill="#ff7c7c"  font-family="Segoe UI,Arial,sans-serif">456</text><text x="1016" y="820" text-anchor="start" font-size="9" font-weight="normal" fill="#50c8a0"  font-family="Segoe UI,Arial,sans-serif">$53.2k</text><rect x="490" y="826" width="770" height="20" rx="0" fill="#252542" stroke="none"/><text x="496" y="840" text-anchor="start" font-size="9" font-weight="normal" fill="#e0e4ff"  font-family="Segoe UI,Arial,sans-serif">CAF Imports</text><text x="761" y="840" text-anchor="start" font-size="9" font-weight="normal" fill="#9aa0cc"  font-family="Segoe UI,Arial,sans-serif">Spain</text><text x="856" y="840" text-anchor="start" font-size="9" font-weight="normal" fill="#ff7c7c"  font-family="Segoe UI,Arial,sans-serif">Bronze</text><text x="936" y="840" text-anchor="start" font-size="9" font-weight="normal" fill="#ff7c7c"  font-family="Segoe UI,Arial,sans-serif">439</text><text x="1016" y="840" text-anchor="start" font-size="9" font-weight="normal" fill="#50c8a0"  font-family="Segoe UI,Arial,sans-serif">$19.0k</text><rect x="490" y="846" width="770" height="20" rx="0" fill="#20203a" stroke="none"/><text x="496" y="860" text-anchor="start" font-size="9" font-weight="normal" fill="#e0e4ff"  font-family="Segoe UI,Arial,sans-serif">Osaka Souveniers Co.</text><text x="761" y="860" text-anchor="start" font-size="9" font-weight="normal" fill="#9aa0cc"  font-family="Segoe UI,Arial,sans-serif">Japan</text><text x="856" y="860" text-anchor="start" font-size="9" font-weight="normal" fill="#4a90e2"  font-family="Segoe UI,Arial,sans-serif">Silver</text><text x="936" y="860" text-anchor="start" font-size="9" font-weight="normal" fill="#ff7c7c"  font-family="Segoe UI,Arial,sans-serif">414</text><text x="1016" y="860" text-anchor="start" font-size="9" font-weight="normal" fill="#50c8a0"  font-family="Segoe UI,Arial,sans-serif">$24.4k</text><rect x="490" y="866" width="770" height="20" rx="0" fill="#252542" stroke="none"/><text x="496" y="880" text-anchor="start" font-size="9" font-weight="normal" fill="#e0e4ff"  font-family="Segoe UI,Arial,sans-serif">Diecast Collectables</text><text x="761" y="880" text-anchor="start" font-size="9" font-weight="normal" fill="#9aa0cc"  font-family="Segoe UI,Arial,sans-serif">USA</text><text x="856" y="880" text-anchor="start" font-size="9" font-weight="normal" fill="#4a90e2"  font-family="Segoe UI,Arial,sans-serif">Silver</text><text x="936" y="880" text-anchor="start" font-size="9" font-weight="normal" fill="#ff7c7c"  font-family="Segoe UI,Arial,sans-serif">401</text><text x="1016" y="880" text-anchor="start" font-size="9" font-weight="normal" fill="#50c8a0"  font-family="Segoe UI,Arial,sans-serif">$25.2k</text><rect x="0" y="884" width="1400" height="16" rx="0" fill="#252542" stroke="none"/><text x="700" y="895" text-anchor="middle" font-size="9" font-weight="normal" fill="#9aa0cc"  font-family="Segoe UI,Arial,sans-serif">Scale Model Car Store · Phase 2 Advanced Analytics · AX Consult Group · stores.db 2003–2005</text>
</svg>